<?xml version="1.0" encoding="UTF-8"?>
<svg width="96px" height="96px" viewBox="0 0 96 96" version="1.1" xmlns="http://www.w3.org/2000/svg" xmlns:xlink="http://www.w3.org/1999/xlink">
    <!-- Generator: Sketch 42 (36781) - http://www.bohemiancoding.com/sketch -->
    <title>icon_96_bonus</title>
    <desc>Created with Sketch.</desc>
    <defs></defs>
    <g id="Page-B---iOS" stroke="none" stroke-width="1" fill="none" fill-rule="evenodd">
        <g id="B4-紅利查詢" transform="translate(-140.000000, -100.000000)">
            <g id="Group-4" transform="translate(140.000000, 100.000000)">
                <rect id="Rectangle-2" x="0" y="0" width="96" height="96"></rect>
                <g id="Group-5" transform="translate(2.000000, 4.000000)" fill="#DF643E">
                    <path d="M18.5303513,37.9747796 C7.84461289,40.9552819 0,50.818406 0,62.5263158 C0,76.5950431 11.3271958,88 25.3,88 C35.5559119,88 44.3865215,81.8556625 48.3588489,73.0235348 C32.1828069,69.1224605 19.9148529,55.0984587 18.5303513,37.9747796 Z" id="Combined-Shape"></path>
                    <path d="M57.5,69.4736842 C38.4461761,69.4736842 23,53.9214703 23,34.7368421 C23,15.552214 38.4461761,0 57.5,0 C76.5538239,0 92,15.552214 92,34.7368421 C92,53.9214703 76.5538239,69.4736842 57.5,69.4736842 Z M49.8088006,49.7415482 C50.2435007,50.5523584 51.1750008,51.1136884 52.313501,51.1136884 C53.4520012,51.1136884 54.3835014,50.5523584 54.8182014,49.7415482 C55.1701015,49.0346881 55.2115015,48.556518 55.2115015,47.2051678 L55.2115015,39.8039266 L60.8833024,39.8039266 C67.0105034,39.8039266 70.612304,35.6043459 70.612304,30.5731651 C70.612304,25.5419843 67.0105034,21.3424036 60.8833024,21.3424036 L52.9345011,21.3424036 C52.085801,21.3424036 51.0301008,21.3424036 50.2228007,22.1532137 C49.4155006,22.9640238 49.4155006,24.024314 49.4155006,24.8767041 L49.4155006,47.2051678 C49.4155006,48.556518 49.4569006,49.0346881 49.8088006,49.7415482 Z M55.2115015,34.6480057 L55.2115015,26.4983244 L60.5521024,26.4983244 C63.1603028,26.4983244 64.8163031,28.1407347 64.8163031,30.5731651 C64.8163031,32.9848055 63.1603028,34.6480057 60.5521024,34.6480057 L55.2115015,34.6480057 Z" id="Combined-Shape"></path>
                </g>
            </g>
        </g>
    </g>
</svg>