<?xml version="1.0" encoding="UTF-8"?>
<svg width="64px" height="64px" viewBox="0 0 64 64" version="1.1" xmlns="http://www.w3.org/2000/svg" xmlns:xlink="http://www.w3.org/1999/xlink">
    <!-- Generator: Sketch 42 (36781) - http://www.bohemiancoding.com/sketch -->
    <title>icon_64_member_record</title>
    <desc>Created with Sketch.</desc>
    <defs>
        <path d="M18.9617414,24.8523155 L18.7817439,23.5710292 C18.7042738,23.0195695 18.3293531,22.8780099 17.9441801,23.2537434 L15.086726,26.0411695 C14.7019896,26.4164772 14.773379,26.9281857 15.2471538,27.1831513 L18.7619115,29.0746458 C19.2351494,29.3293224 19.5570111,29.089656 19.4796104,28.5386903 L19.2798509,27.1167314 C19.3786272,27.1421574 19.4821795,27.1556802 19.5888889,27.1556802 C23.0034113,27.1556802 25.7714286,29.9248587 25.7714286,33.3408135 C25.7714286,36.7567682 23.0034113,39.5259467 19.5888889,39.5259467 C16.1743665,39.5259467 13.4063492,36.7567682 13.4063492,33.3408135 C13.4063492,32.6576225 12.8527457,32.1037868 12.1698413,32.1037868 C11.4869368,32.1037868 10.9333333,32.6576225 10.9333333,33.3408135 C10.9333333,38.1231501 14.8085576,42 19.5888889,42 C24.3692202,42 28.2444444,38.1231501 28.2444444,33.3408135 C28.2444444,28.5584768 24.3692202,24.6816269 19.5888889,24.6816269 C19.3599861,24.6816269 19.1456107,24.7438517 18.9617414,24.8523155 L18.9617414,24.8523155 Z" id="path-1"></path>
        <mask id="mask-2" maskContentUnits="userSpaceOnUse" maskUnits="objectBoundingBox" x="-1.82608696" y="-1.82608696" width="20.963285" height="22.6085739">
            <rect x="9.10724638" y="21.2175131" width="20.963285" height="22.6085739" fill="white"></rect>
            <use xlink:href="#path-1" fill="black"></use>
        </mask>
    </defs>
    <g id="Page-B---iOS" stroke="none" stroke-width="1" fill="none" fill-rule="evenodd">
        <g id="B0-會員專區" transform="translate(-16.000000, -247.000000)">
            <g id="Group-2" transform="translate(0.000000, 241.000000)">
                <g id="Group-7" transform="translate(16.000000, 6.000000)">
                    <rect id="Rectangle-2" x="0" y="0" width="64" height="64"></rect>
                    <g id="Group" transform="translate(34.500000, 35.000000) rotate(-45.000000) translate(-34.500000, -35.000000) translate(14.000000, 14.000000)">
                        <path d="M37.1668551,2.01047429 L37.1668551,24.1971016 C37.1668551,24.5307296 37.0467414,24.8197781 36.8065138,25.064247 C36.5662862,25.3087158 36.2814145,25.4305907 35.9518988,25.4298717 L1.93737327,25.4298717 C1.60856619,25.4298717 1.32369454,25.3079968 1.08275832,25.064247 C0.841822096,24.8204971 0.721708303,24.5314487 0.722416939,24.1971016 L0.722416939,2.01047429 C0.722416939,1.6768462 0.842530732,1.38779773 1.08275832,1.14332887 C1.32298591,0.898860015 1.60785756,0.7769851 1.93737327,0.777704126 L35.9518988,0.777704126 C36.2807059,0.777704126 36.5655775,0.899579042 36.8065138,1.14332887 C37.04745,1.3870787 37.1675638,1.67612717 37.1668551,2.01047429 L37.1668551,2.01047429 Z" id="Shape" fill="#DF643E"></path>
                        <path d="M39.0996137,3.94733199 L39.0996137,26.1339593 C39.0996137,26.4675873 38.9794999,26.7566358 38.7392723,27.0011047 C38.4990447,27.2455735 38.2141731,27.3674484 37.8846573,27.3667294 L3.87013181,27.3667294 C3.54132473,27.3667294 3.25645308,27.2448545 3.01551685,27.0011047 C2.77458063,26.7573548 2.65446684,26.4683064 2.65517547,26.1339593 L2.65517547,3.94733199 C2.65517547,3.6137039 2.77528927,3.32465543 3.01551685,3.08018658 C3.25574444,2.83571772 3.54061609,2.71384281 3.87013181,2.71456183 L37.8846573,2.71456183 C38.2134644,2.71456183 38.4983361,2.83643675 38.7392723,3.08018658 C38.9802085,3.32393641 39.1003223,3.61298488 39.0996137,3.94733199 L39.0996137,3.94733199 Z" id="Shape" fill="#FFFFFF"></path>
                        <path d="M27.6337349,16.3335002 C27.6337349,16.9904376 27.5074917,17.6568349 27.2550053,18.3326922 C27.0025188,19.0085494 26.6446614,19.6373699 26.181433,20.2191537 C25.7182046,20.8009375 25.1078607,21.2749836 24.3504014,21.6412919 C23.5929422,22.0076002 22.7634401,22.1904916 21.8618953,22.189966 C20.9603504,22.1894405 20.1308484,22.0065491 19.3733891,21.6412919 C18.6159298,21.2760347 18.005586,20.8019886 17.5423575,20.2191537 C17.0791291,19.6363188 16.7212717,19.0074983 16.4687853,18.3326922 C16.2162989,17.657886 16.0900556,16.9914887 16.0900556,16.3335002 C16.0900556,15.6755116 16.2162989,15.0091143 16.4687853,14.3343082 C16.7212717,13.659502 17.0791291,13.0306815 17.5423575,12.4478466 C18.005586,11.8650117 18.6159298,11.3909657 19.3733891,11.0257085 C20.1308484,10.6604513 20.9603504,10.4775599 21.8618953,10.4770343 C22.7634401,10.4765088 23.5929422,10.6594002 24.3504014,11.0257085 C25.1078607,11.3920168 25.7182046,11.8660628 26.181433,12.4478466 C26.6446614,13.0296304 27.0025188,13.6584509 27.2550053,14.3343082 C27.5074917,15.0101654 27.6337349,15.6765627 27.6337349,16.3335002 L27.6337349,16.3335002 Z M37.9582067,21.2624255 L37.9582067,11.4013427 C36.6167589,11.4013427 35.4716032,10.9199548 34.5227396,9.95717891 C33.5738761,8.99440303 33.0994443,7.83245693 33.0994443,6.47134062 L11.2334192,6.47134062 C11.2334192,7.83245693 10.7589874,8.99440303 9.81012387,9.95717891 C8.86126033,10.9199548 7.71610464,11.4013427 6.37465679,11.4013427 L6.37465679,21.2624255 C7.71610464,21.2624255 8.86126033,21.7438134 9.81012387,22.7065893 C10.7589874,23.6693652 11.2334192,24.8313113 11.2334192,26.1924276 L33.0994443,26.1924276 C33.0994443,24.8313113 33.5738761,23.6693652 34.5227396,22.7065893 C35.4716032,21.7438134 36.6167589,21.2624255 37.9582067,21.2624255 Z M40.3881194,5.23857046 L40.3881194,27.4251977 C40.3881194,27.7588258 40.2680056,28.0478743 40.027778,28.2923431 C39.7875504,28.536812 39.5026788,28.6586869 39.173163,28.6579679 L5.1586375,28.6579679 C4.82983042,28.6579679 4.54495877,28.536093 4.30402254,28.2923431 C4.06308632,28.0485933 3.94297253,27.7595448 3.94368116,27.4251977 L3.94368116,5.23857046 C3.94368116,4.90494237 4.06379496,4.6158939 4.30402254,4.37142505 C4.54425013,4.12695619 4.82912178,4.00508128 5.1586375,4.0058003 L39.173163,4.0058003 C39.5019701,4.0058003 39.7868418,4.12767522 40.027778,4.37142505 C40.2687142,4.61517488 40.388828,4.90422335 40.3881194,5.23857046 L40.3881194,5.23857046 Z" id="Shape" fill="#DF643E"></path>
                        <g id="Combined-Shape">
                            <use fill="#DF643E" fill-rule="evenodd" xlink:href="#path-1"></use>
                            <use stroke="#FFFFFF" mask="url(#mask-2)" stroke-width="3.65217391" xlink:href="#path-1"></use>
                        </g>
                        <path d="M18.6615079,33.2346934 C18.6615079,32.9972563 18.7520491,32.7598193 18.9331315,32.5786609 L21.9933325,29.5171761 C22.3554973,29.1548594 22.9426825,29.1548594 23.3048473,29.5171761 C23.6670121,29.8794929 23.6670121,30.4669243 23.3048473,30.829241 L20.9004036,33.2346934 L22.4305041,34.7654357 C22.7926689,35.1277525 22.7926689,35.7151839 22.4305041,36.0775006 C22.0683393,36.4398173 21.4811542,36.4398173 21.1189894,36.0775006 L18.9331315,33.8907258 C18.7520491,33.7095674 18.6615079,33.4721304 18.6615079,33.2346934 L18.6615079,33.2346934 Z" id="Combined-Shape" fill="#DF643E" fill-rule="nonzero"></path>
                    </g>
                </g>
            </g>
        </g>
    </g>
</svg>