<?xml version="1.0" encoding="UTF-8"?>
<svg width="24px" height="24px" viewBox="0 0 24 24" version="1.1" xmlns="http://www.w3.org/2000/svg" xmlns:xlink="http://www.w3.org/1999/xlink">
    <!-- Generator: Sketch 42 (36781) - http://www.bohemiancoding.com/sketch -->
    <title>icon_24_service_phone</title>
    <desc>Created with Sketch.</desc>
    <defs></defs>
    <g id="Page-B---iOS" stroke="none" stroke-width="1" fill="none" fill-rule="evenodd">
        <g id="B6.1-客服專區---聯絡我們" transform="translate(-16.000000, -142.000000)">
            <g id="Group-4" transform="translate(16.000000, 142.000000)">
                <g id="Group-5">
                    <g id="Group-3">
                        <g id="Group-2">
                            <rect id="Rectangle-2" x="0" y="0" width="24" height="24"></rect>
                            <path d="M22,17.7952512 C22,18.0508558 21.9525381,18.3846796 21.8576144,18.7967227 C21.7626907,19.2087659 21.6632595,19.5330443 21.5593207,19.7695581 C21.3604582,20.243116 20.7826963,20.745045 19.8260351,21.275345 C18.9356614,21.7584483 18.0550982,22 17.1843455,22 C16.9287409,22 16.6800302,21.9832955 16.4382134,21.9498866 C16.1963966,21.9164777 15.9240876,21.8573493 15.6212862,21.7725013 C15.3184849,21.6876533 15.0936377,21.6189794 14.9467446,21.5664797 C14.7998515,21.51398 14.5370879,21.4169351 14.1584536,21.275345 C13.7798194,21.1337549 13.5478132,21.0486418 13.4624349,21.0200056 C12.5344098,20.6885681 11.7058161,20.2956157 10.9766535,19.8411486 C9.7643877,19.0928953 8.51208421,18.0725981 7.21974307,16.7802569 C5.92740193,15.4879158 4.90710469,14.2356123 4.15885137,13.0233465 C3.70438426,12.2941839 3.31143194,11.4655902 2.97999443,10.5375651 C2.95135823,10.4521868 2.86624508,10.2201806 2.72465497,9.84154635 C2.58306487,9.46291214 2.48601997,9.20014848 2.43352026,9.05325538 C2.38102056,8.90636227 2.31234671,8.68151507 2.22749871,8.37871376 C2.1426507,8.07591245 2.08352225,7.80360339 2.05011335,7.56178658 C2.01670445,7.31996977 2,7.07125906 2,6.81565446 C2,5.94437153 2.24155166,5.06380835 2.72465497,4.17396492 C3.25495499,3.21730369 3.75688396,2.63954182 4.23044187,2.44067931 C4.46695568,2.33674051 4.79123414,2.23730926 5.20327725,2.14238555 C5.61532037,2.04746185 5.94914423,2 6.20474884,2 C6.33732384,2 6.43675509,2.0143181 6.5030426,2.0429543 C6.6732689,2.0996964 6.92410081,2.45950496 7.25553832,3.12237999 C7.35947712,3.30215169 7.50159753,3.5577563 7.68189953,3.88919381 C7.86220154,4.22063132 8.0279203,4.52131143 8.1790558,4.79123414 C8.33019131,5.06115685 8.47708441,5.31437511 8.61973512,5.55088892 C8.64837132,5.58854022 8.73136327,5.70679712 8.86871097,5.90565963 C9.00605868,6.10452213 9.10787628,6.27262724 9.17416378,6.40997494 C9.24045129,6.54732265 9.27359504,6.682284 9.27359504,6.81485901 C9.27359504,7.00417611 9.13863368,7.24095507 8.86871097,7.52519588 C8.59878826,7.80943669 8.3052672,8.069814 7.98814779,8.3063278 C7.67102838,8.54284161 7.37750732,8.79367352 7.10758462,9.05882353 C6.83766191,9.32397354 6.70270055,9.5416617 6.70270055,9.711888 C6.70270055,9.7972663 6.7262989,9.90385661 6.77349561,10.0316589 C6.82069231,10.1594612 6.86099511,10.2565061 6.89440401,10.3227936 C6.92781291,10.3890811 6.99410041,10.5028305 7.09326652,10.6640417 C7.19243262,10.8252529 7.24678837,10.9151387 7.25633377,10.9336992 C7.97595089,12.2308131 8.79977197,13.3433825 9.727797,14.2714075 C10.655822,15.1994326 11.7683915,16.0232537 13.0655053,16.7428708 C13.0845961,16.7524162 13.174482,16.8067719 13.3351629,16.905938 C13.4958438,17.0051041 13.6095931,17.0713916 13.6764109,17.1048005 C13.7432287,17.1382094 13.8402736,17.1785122 13.9675456,17.2257089 C14.0948176,17.2729056 14.2014079,17.296504 14.2873165,17.296504 C14.4575429,17.296504 14.675231,17.1615426 14.940381,16.8916199 C15.205531,16.6216972 15.4563629,16.3281762 15.6928767,16.0110568 C15.9293906,15.6939373 16.1897679,15.4004163 16.4740087,15.1304936 C16.7582495,14.8605709 16.9950284,14.7256095 17.1843455,14.7256095 C17.3169205,14.7256095 17.4518819,14.7587533 17.5892296,14.8250408 C17.7265773,14.8913283 17.8946824,14.9931459 18.0935449,15.1304936 C18.2924074,15.2678413 18.4106643,15.3508332 18.4483156,15.3794694 C18.6848294,15.5215898 18.9380477,15.6684829 19.2079704,15.8201487 C19.4778931,15.9718146 19.7785732,16.1375333 20.1100107,16.317305 C20.4414482,16.4970767 20.6970529,16.6391971 20.8768246,16.7436662 C21.5396996,17.0751037 21.8995081,17.3259356 21.9562502,17.496162 C21.9848864,17.5624495 21.9992045,17.6618807 21.9992045,17.7944557 L22,17.7952512 Z" id="Shape" fill="#DF643E"></path>
                        </g>
                    </g>
                </g>
            </g>
        </g>
    </g>
</svg>