<?xml version="1.0" encoding="UTF-8"?>
<svg width="64px" height="64px" viewBox="0 0 64 64" version="1.1" xmlns="http://www.w3.org/2000/svg" xmlns:xlink="http://www.w3.org/1999/xlink">
    <!-- Generator: Sketch 42 (36781) - http://www.bohemiancoding.com/sketch -->
    <title>icon_64_member_privacy</title>
    <desc>Created with Sketch.</desc>
    <defs></defs>
    <g id="Page-B---iOS" stroke="none" stroke-width="1" fill="none" fill-rule="evenodd">
        <g id="B0-會員專區" transform="translate(-16.000000, -555.000000)">
            <g id="Group-2" transform="translate(0.000000, 549.000000)">
                <g id="Group-12" transform="translate(16.000000, 6.000000)">
                    <rect id="Rectangle-2" x="0" y="0" width="64" height="64"></rect>
                    <g id="file-text2" transform="translate(14.000000, 11.000000)" fill="#DF643E">
                        <g id="Group">
                            <path d="M34.3041429,8.94875 C35.8238571,10.9625 36,11.94 36,12.5 L36,38.875 C36,40.5975 34.5574286,42 32.7857143,42 L3.21428571,42 C1.44257143,42 0,40.5975 0,38.875 L0,3.125 C0,1.40125 1.44257143,0 3.21428571,0 L23.1428571,0 C23.7188571,0 24.723,0.17125 26.7955714,1.64875 C28.0131429,2.51625 29.4364286,3.725 30.8018571,5.05375 C32.1672857,6.3825 33.4118571,7.765 34.3041429,8.94875 Z M8.5,35 L27.5,35 C28.3284271,35 29,34.3284271 29,33.5 C29,32.6715729 28.3284271,32 27.5,32 L8.5,32 C7.67157288,32 7,32.6715729 7,33.5 C7,34.3284271 7.67157288,35 8.5,35 Z M8.5,28 L27.5,28 C28.3284271,28 29,27.3284271 29,26.5 C29,25.6715729 28.3284271,25 27.5,25 L8.5,25 C7.67157288,25 7,25.6715729 7,26.5 C7,27.3284271 7.67157288,28 8.5,28 Z M8.5,21 L27.5,21 C28.3284271,21 29,20.3284271 29,19.5 C29,18.6715729 28.3284271,18 27.5,18 L8.5,18 C7.67157288,18 7,18.6715729 7,19.5 C7,20.3284271 7.67157288,21 8.5,21 Z M28.9838571,6.82125 C27.7508571,5.6225 26.6374286,4.68125 25.7142857,3.98625 L25.7142857,10 L31.8998571,10 C31.185,9.1025 30.2168571,8.02 28.9838571,6.82125 Z" id="Combined-Shape"></path>
                        </g>
                    </g>
                </g>
            </g>
        </g>
    </g>
</svg>