<?xml version="1.0" encoding="UTF-8"?>
<svg width="64px" height="64px" viewBox="0 0 64 64" version="1.1" xmlns="http://www.w3.org/2000/svg" xmlns:xlink="http://www.w3.org/1999/xlink">
    <!-- Generator: Sketch 42 (36781) - http://www.bohemiancoding.com/sketch -->
    <title>icon_64_member_ticket</title>
    <desc>Created with Sketch.</desc>
    <defs></defs>
    <g id="Page-B---iOS" stroke="none" stroke-width="1" fill="none" fill-rule="evenodd">
        <g id="B0-會員專區" transform="translate(-16.000000, -170.000000)">
            <g id="Group-2" transform="translate(0.000000, 164.000000)">
                <g id="Group-4" transform="translate(16.000000, 6.000000)">
                    <rect id="Rectangle-2" x="0" y="0" width="64" height="64"></rect>
                    <path d="M31.8150699,21.4926572 C32.9016254,20.4061378 34.6645521,20.4074099 35.7515965,21.4944183 L42.4815042,28.2241022 C43.5690323,29.3115942 43.5695786,31.0742209 42.4832653,32.1604981 L32.1612013,42.482219 C31.0746458,43.5687384 29.3117191,43.5674663 28.2246746,42.4804579 L21.494767,35.750774 C20.4072389,34.663282 20.4066926,32.9006553 21.4930059,31.8143782 L31.8150699,21.4926572 Z M29.4707876,52.0773986 C28.8556996,52.6924662 28.1038219,53 27.2151545,53 C26.3264872,53 25.5746095,52.6924662 24.9595214,52.0773986 L21.8189432,48.9369247 C22.7494849,48.0064139 23.2147557,46.8763085 23.2147557,45.5466086 C23.2147557,44.2169087 22.7494849,43.0868034 21.8189432,42.1562926 C20.8884015,41.2257818 19.7582586,40.7605264 18.4285145,40.7605264 C17.0987704,40.7605264 15.9686275,41.2257818 15.0380857,42.1562926 L11.9226321,39.0158187 C11.307544,38.4007511 11,37.6488983 11,36.7602605 C11,35.8716227 11.307544,35.11977 11.9226321,34.5047024 L34.5292124,11.9226014 C35.1443004,11.3075338 35.8961781,11 36.7848455,11 C37.6735128,11 38.4253905,11.3075338 39.0404786,11.9226014 L42.1559322,15.0379515 C41.2253905,15.9684623 40.7601196,17.0985677 40.7601196,18.4282676 C40.7601196,19.7579675 41.2253905,20.8880728 42.1559322,21.8185836 C43.0864739,22.7490944 44.2166168,23.2143498 45.5463609,23.2143498 C46.876105,23.2143498 48.0062479,22.7490944 48.9367896,21.8185836 L52.0773679,24.9339337 C52.692456,25.5490014 53,26.3008541 53,27.1894919 C53,28.0781297 52.692456,28.8299824 52.0773679,29.44505 L29.4707876,52.0773986 Z" id="Shape" fill="#DF643E"></path>
                </g>
            </g>
        </g>
    </g>
</svg>