<?xml version="1.0" encoding="UTF-8"?>
<svg width="64px" height="64px" viewBox="0 0 64 64" version="1.1" xmlns="http://www.w3.org/2000/svg" xmlns:xlink="http://www.w3.org/1999/xlink">
    <!-- Generator: Sketch 42 (36781) - http://www.bohemiancoding.com/sketch -->
    <title>icon_64_member_personal</title>
    <desc>Created with Sketch.</desc>
    <defs></defs>
    <g id="Page-B---iOS" stroke="none" stroke-width="1" fill="none" fill-rule="evenodd">
        <g id="B0-會員專區" transform="translate(-16.000000, -401.000000)">
            <g id="Group-2" transform="translate(0.000000, 395.000000)">
                <g id="Group-9" transform="translate(16.000000, 6.000000)">
                    <rect id="Rectangle-2" x="0" y="0" width="64" height="64"></rect>
                    <path d="M19.3329815,42.5876896 L19.3329815,44.6649075 L44.6649075,44.6649075 L44.6649075,42.5876896 C44.6649075,38.331926 36.2547081,36.0562747 31.9989445,36.0562747 C27.7431809,36.0562747 19.3329815,38.331926 19.3329815,42.5876896 Z M38.331926,25.665963 C38.331926,22.2018221 35.4630854,19.3329815 31.9989445,19.3329815 C28.5348036,19.3329815 25.665963,22.2018221 25.665963,25.665963 C25.665963,29.1301039 28.5348036,31.9989445 31.9989445,31.9989445 C35.4630854,31.9989445 38.331926,29.1301039 38.331926,25.665963 Z M13,17.2557636 C13,14.9801122 14.8808955,13 17.2557636,13 L46.7442364,13 C49.0198878,13 51,14.9801122 51,17.2557636 L51,46.7442364 C51,49.0198878 49.0198878,51 46.7442364,51 L17.2557636,51 C14.8808955,51 13,49.0198878 13,46.7442364 L13,17.2557636 Z" id="Shape" fill="#DF643E"></path>
                </g>
            </g>
        </g>
    </g>
</svg>