<?xml version="1.0" encoding="UTF-8"?>
<svg width="64px" height="64px" viewBox="0 0 64 64" version="1.1" xmlns="http://www.w3.org/2000/svg" xmlns:xlink="http://www.w3.org/1999/xlink">
    <!-- Generator: Sketch 42 (36781) - http://www.bohemiancoding.com/sketch -->
    <title>icon_64_member_service</title>
    <desc>Created with Sketch.</desc>
    <defs></defs>
    <g id="Page-B---iOS" stroke="none" stroke-width="1" fill="none" fill-rule="evenodd">
        <g id="B0-會員專區" transform="translate(-16.000000, -478.000000)">
            <g id="Group-2" transform="translate(0.000000, 472.000000)">
                <g id="Group-10" transform="translate(16.000000, 6.000000)">
                    <rect id="Rectangle-2" x="0" y="0" width="64" height="64"></rect>
                    <path d="M51,28.8306088 L51,47.7231304 C51,51.1565781 48.131,54 44.6666667,54 L34.2208596,54 C32.9943127,54 32,53.0003795 32,51.7797993 L32,52.0021443 C32,50.7759613 32.9902896,49.7819436 34.2232895,49.7819436 L46.744,49.7819436 L46.744,47.7231304 L40.543137,47.7231304 C39.3226961,47.7231304 38.3333333,46.7373706 38.3333333,45.5100107 L38.3333333,35.2596926 C38.3333333,34.0374203 39.3311754,33.0465729 40.543137,33.0465729 L46.744,33.0465729 L46.744,28.8285165 C46.744,20.6874166 40.2122222,14.2159641 32,14.2159641 C23.7877778,14.2159641 17.256,20.6895089 17.256,28.8285165 L17.256,33.0465729 L23.456863,33.0465729 C24.6773039,33.0465729 25.6666667,34.0323327 25.6666667,35.2596926 L25.6666667,45.5100107 C25.6666667,46.732283 24.6770833,47.7231304 23.451574,47.7231304 L19.3333333,47.7231304 C15.869,47.7231304 13,44.8797085 13,41.4462608 L13,28.8306088 C13,18.4340205 21.5098889,10 32,10 C42.4901111,10 51,18.4340205 51,28.8306088 Z" id="Shape" fill="#DF643E"></path>
                </g>
            </g>
        </g>
    </g>
</svg>