<?xml version="1.0" encoding="UTF-8"?>
<svg width="24px" height="24px" viewBox="0 0 24 24" version="1.1" xmlns="http://www.w3.org/2000/svg" xmlns:xlink="http://www.w3.org/1999/xlink">
    <!-- Generator: Sketch 42 (36781) - http://www.bohemiancoding.com/sketch -->
    <title>icon_24_service_mail</title>
    <desc>Created with Sketch.</desc>
    <defs></defs>
    <g id="Page-B---iOS" stroke="none" stroke-width="1" fill="none" fill-rule="evenodd">
        <g id="B6.1-客服專區---聯絡我們" transform="translate(-16.000000, -258.000000)">
            <g id="Group-4" transform="translate(16.000000, 142.000000)">
                <g id="Group-6" transform="translate(0.000000, 116.000000)">
                    <g id="Group">
                        <rect id="Rectangle-2" x="0" y="0" width="24" height="24"></rect>
                        <path d="M22.9986252,9.48232253 L22.9986252,19.068443 C22.9986252,19.5998409 22.8063784,20.0546166 22.4218848,20.4327699 C22.0373912,20.8109233 21.5749906,21 21.0346832,21 L2.96531684,21 C2.42500937,21 1.96260884,20.8109233 1.57811524,20.4327699 C1.19362163,20.0546166 1.00137483,19.5998409 1.00137483,19.068443 L1.00137483,9.48232253 C1.3615798,9.8767018 1.7749448,10.2269106 2.24146982,10.5329489 C5.2037662,12.5129582 7.23736616,13.9013986 8.34226972,14.69827 C8.80879473,15.0363094 9.18733075,15.2999801 9.47787777,15.4892822 C9.76842478,15.6785842 10.1552098,15.8717174 10.6382327,16.0686816 C11.1212557,16.2656459 11.5712828,16.3643534 11.988314,16.3648041 L12.0130609,16.3648041 C12.4305503,16.3648041 12.8805774,16.2660966 13.3631421,16.0686816 C13.8457068,15.8712667 14.2324918,15.6781335 14.5234971,15.4892822 C14.8145024,15.3004308 15.1930384,15.0367601 15.6591051,14.69827 C17.0504312,13.7084908 19.0881556,12.3200504 21.7722785,10.5329489 C22.2388035,10.2192484 22.648044,9.86903957 23,9.48232253 L22.9986252,9.48232253 Z M22.9986252,5.93290913 C22.9986252,6.56887386 22.7981294,7.1764433 22.3971379,7.75561742 C21.9961463,8.33479154 21.4968546,8.82968118 20.8992626,9.24028634 C17.8223972,11.3410884 15.9074907,12.6490754 15.1545432,13.1642474 C15.0725118,13.2205873 14.898596,13.3434082 14.6327959,13.5327103 C14.3669958,13.7220123 14.1461067,13.8750315 13.9701287,13.9917677 C13.7941507,14.108504 13.5812815,14.2392126 13.3315211,14.3838934 C13.0817606,14.5285743 12.8464359,14.6371976 12.6255468,14.7097634 C12.4046578,14.7823292 12.2000375,14.8186121 12.011686,14.8186121 L11.9869391,14.8186121 C11.7985877,14.8186121 11.5939674,14.7823292 11.3730784,14.7097634 C11.1521893,14.6371976 10.9168646,14.5285743 10.6671041,14.3838934 C10.4173437,14.2392126 10.2044744,14.108504 10.0284964,13.9917677 C9.85251844,13.8750315 9.63162938,13.7220123 9.36582927,13.5327103 C9.10002916,13.3434082 8.9261134,13.2205873 8.84408199,13.1642474 C8.09938341,12.6490754 7.02724659,11.9146285 5.62767154,10.9609067 C4.22809649,10.007185 3.38922218,9.43364486 3.11104862,9.24028634 C2.60373703,8.90224697 2.1250677,8.43733015 1.67504062,7.84553589 C1.22501354,7.25374163 1,6.70431497 1,6.19725592 C1,5.56940412 1.16979128,5.04634454 1.50937383,4.62807715 C1.84895638,4.20980977 2.33381244,4.00045072 2.96394201,4 L21.0333083,4 C21.5653668,4 22.0257051,4.18907669 22.4143232,4.56723007 C22.8029413,4.94538344 22.9972503,5.40015908 22.9972503,5.93155697 L22.9986252,5.93290913 Z" id="Shape" fill="#DF643E"></path>
                    </g>
                </g>
            </g>
        </g>
    </g>
</svg>