<?xml version="1.0" encoding="UTF-8"?>
<svg width="219px" height="68px" viewBox="0 0 219 68" version="1.1" xmlns="http://www.w3.org/2000/svg" xmlns:xlink="http://www.w3.org/1999/xlink">
    <!-- Generator: Sketch 42 (36781) - http://www.bohemiancoding.com/sketch -->
    <title>Page 1</title>
    <desc>Created with Sketch.</desc>
    <defs></defs>
    <g id="Page-B---iOS" stroke="none" stroke-width="1" fill="none" fill-rule="evenodd">
        <g id="B1.4-安裝App(Web)" transform="translate(-78.000000, -205.000000)" fill="#FFFFFF">
            <g id="Group-6">
                <g id="Page-1" transform="translate(78.000000, 205.000000)">
                    <path d="M65.4834,30.4363516 C66.0564,31.5841319 65.08065,33.0696703 64.3584,34.1076044 C63.53565,35.286022 62.23665,36.5944615 61.18965,36.7431648 C60.2514,36.8776703 58.9434,36.3605714 57.71865,36.1946813 C49.9119,35.1276044 35.4879,34.1427253 28.36515,37.1676044 C21.0744,44.5452308 12.10665,54.5957802 5.0169,61.4592967 C4.13265,62.3178901 3.0579,63.2295385 1.6704,63.1219341 C-0.9801,62.9201758 0.06915,58.2662857 1.1094,57.1962198 C6.7539,51.4035165 15.29715,44.5848352 28.25415,29.0658901 C29.17665,27.9046593 30.1899,26.8487912 31.1394,25.7152088 C26.16015,26.8211429 22.66065,28.1168791 17.23815,29.1548132 C15.80115,29.4283077 13.2684,30.2375824 12.2544,29.7399121 C10.79565,29.0218022 12.4899,26.1418901 13.3539,25.1368352 C15.3984,22.7613187 16.13415,22.6671648 19.69665,21.1920879 C23.2419,19.7222418 33.3939,18.5266374 34.1379,13.8570549 C29.9139,14.3233407 22.9944,16.0666813 22.05015,14.8822857 C21.1719,12.3423736 23.41365,9.60668132 25.7034,8.73389011 C27.3879,8.09125275 29.93565,8.02773626 32.0919,7.6981978 C38.27865,6.75292308 48.8964,3.88123077 55.1184,3.86927473 C58.1799,5.2912967 54.3639,9.05446154 53.3604,10.197011 C47.0679,13.1381978 40.76865,14.288967 46.09365,15.7543297 C49.2759,16.6286154 54.0954,15.0085714 57.77115,15.3246593 C58.73265,15.4068571 61.46265,15.574989 61.7904,16.0674286 C62.5389,17.1898022 61.1664,19.246989 60.37665,20.1922637 C59.4624,21.286989 57.84465,22.6103736 56.6244,22.7747692 C56.01765,22.8562198 55.3689,22.6656703 54.72165,22.6522198 C51.21315,22.5767473 46.13715,23.1483956 42.64965,23.6953846 C39.8454,24.1362637 36.3084,26.460967 35.45115,28.6534066 C43.7469,27.0938901 56.6814,28.6795604 63.4374,29.7092747 C64.2774,29.8370549 65.1414,29.7503736 65.4834,30.4363516" id="Fill-1"></path>
                    <path d="M216.03165,13.6370637 C218.15115,14.3125802 218.83365,15.822778 218.6124,16.8151297 C217.6824,20.9720967 212.2404,22.0615912 211.3899,22.406822 C197.2974,28.1389978 209.6109,20.3578549 208.1229,20.2816352 C198.0744,19.7675253 187.49115,18.9037011 177.97665,19.2265143 C167.8119,19.5717451 159.13515,20.301811 150.46665,22.7139429 C149.2809,23.0404923 148.0659,23.630822 146.87115,23.4111297 C146.3574,21.812756 147.3234,19.5919209 148.2339,18.1930637 C149.34165,16.4900747 151.04865,14.8192176 152.5629,13.3224703 C156.2829,9.64523956 160.50765,6.36181099 164.61765,3.1688 C165.5439,2.44844835 167.89365,-0.00926593407 168.6444,1.71016264 C169.13265,2.84000879 168.1719,4.95548132 167.5869,5.86712967 C165.4764,9.14831648 160.0719,11.6015473 157.5369,14.4590418 C173.6064,11.0261626 193.24065,11.3392615 212.52615,13.0654154 C213.6774,13.1692835 215.4879,13.4637011 216.03165,13.6370637" id="Fill-4"></path>
                    <path d="M169.131375,40.9581187 C172.721625,42.3136352 176.915625,44.0188659 181.176375,44.1952176 C178.633875,41.5641407 172.912125,40.2766242 169.131375,40.9581187 M180.126375,34.708844 C184.373625,36.2706022 189.130875,38.5123604 187.834125,44.3730637 C185.417625,55.3091077 173.822625,49.9483165 167.353875,48.1735912 C165.458625,47.6542505 159.127125,45.5522286 158.145375,44.1810198 C156.804375,42.3054154 159.794625,38.4839648 160.793625,37.7314813 C162.240375,36.6322725 164.124375,35.9029538 165.796875,35.2670418 C167.589375,34.5848 169.553625,34.3852835 171.374625,33.9234813 C173.293875,33.437767 179.832375,31.8311736 181.591125,31.0009758 C176.655375,31.1153055 172.667625,31.0525363 165.675375,31.8072615 C164.191875,31.9664264 160.193625,32.8369758 158.653875,32.7495473 C157.390125,30.2963165 159.771375,26.6452396 161.429625,25.9204044 C162.949125,25.2546022 169.015125,24.5349978 173.401125,24.1135473 C177.584625,23.7122725 185.722125,24.0007121 189.537375,24.0612396 C191.992125,24.1045802 189.010125,29.7328879 188.503125,30.5227341 C187.290375,32.3893714 181.270875,33.6200967 180.126375,34.708844" id="Fill-7"></path>
                    <path d="M153.705825,26.8526022 C155.010825,27.9249099 153.363075,31.005833 152.682075,32.1835033 C152.273325,32.8821846 151.440075,33.9186242 150.725325,34.1465363 C148.791825,34.7600308 146.457075,34.5470637 144.298575,34.7884264 C131.480325,36.2179209 119.993325,38.1675033 110.391825,42.3999429 C108.819075,43.0963824 107.140575,43.9235912 107.238075,41.1535253 C107.397825,36.7081187 111.799575,34.8190637 114.779325,33.3522066 C120.236325,30.6680747 126.703575,27.762756 130.278825,24.8611736 C128.673075,25.0838549 128.189325,25.3192396 126.295575,25.5411736 C124.999575,25.6936132 122.162325,26.7001626 121.502325,25.8482945 C120.228825,24.2065802 121.563075,19.8015253 122.230575,18.9720747 C122.577075,18.5364264 125.313075,16.9425363 125.752575,16.6167341 C125.094825,15.980822 123.258825,16.2520747 122.752575,15.6071956 C121.420575,13.9027121 123.495075,9.97888791 124.320825,9.07097582 C126.314325,6.88227253 129.515325,9.58508571 131.674575,10.4003385 C132.335325,10.6491736 133.422075,10.7522945 133.687575,11.1020088 C134.537325,12.2206462 133.690575,15.2843824 133.306575,16.5883385 C134.649075,16.4329099 135.940575,16.2812176 137.519325,16.0966462 C138.735075,15.9539209 140.684325,16.1093495 141.312075,16.6809978 C142.064325,17.3565143 141.666075,19.3449538 141.386325,20.3201187 C140.463825,23.5213495 136.713825,27.8135692 134.634075,29.577833 C140.314575,27.9742286 152.879325,26.174844 153.705825,26.8526022" id="Fill-9"></path>
                    <path d="M115.974375,22.2442945 C117.389625,23.7343165 114.455625,28.2873275 112.548375,29.1444264 C111.409875,29.6548 100.766625,31.3346242 86.222625,35.8286022 C84.806625,38.7279429 82.371375,46.169833 80.363625,48.5535692 C79.814625,49.2044264 78.568125,50.3820967 77.530125,50.3305363 C75.201375,50.2154593 77.312625,44.8800747 77.769375,43.3736132 C80.002875,35.9750637 83.446875,28.9322066 87.185625,23.460822 C84.980625,25.1092615 78.076875,28.6078989 77.803125,27.0080308 C75.955875,30.3295692 76.293375,33.5726462 74.367375,37.0294374 C73.718625,38.1921626 73.114875,39.511811 72.403125,40.4122505 C71.954625,40.9786681 70.221375,42.6263604 69.083625,42.3954593 C67.909125,42.160822 68.353125,38.8886022 68.556375,37.5749319 C69.378375,32.3411736 71.236125,28.2626681 71.925375,23.0543165 C70.042125,23.1380088 67.813125,24.7640308 66.277125,24.4576571 C64.603875,24.1243824 65.803125,20.0227121 66.467625,18.5984484 C68.339625,14.5871956 69.876375,11.1744923 71.814375,7.69378901 C72.448125,6.55273407 74.056125,3.13031648 75.781875,4.36029451 C76.923375,5.1748 75.423375,8.12943736 74.991375,8.96785495 C73.769625,11.3411297 72.437625,13.7300967 71.592375,16.5308 C73.039125,16.7026681 75.482625,14.9742725 76.849125,15.3277231 C78.163125,15.6707121 77.392875,18.0604264 77.398125,19.5982725 C81.469875,13.5395473 85.411875,10.1260967 90.117375,4.0060967 C90.822375,3.08772308 92.750625,1.37875604 93.496125,0.768250549 C94.516125,-0.0709142857 96.349125,-0.576057143 96.510375,1.17625055 C96.725625,3.50469011 95.272875,5.75915165 94.143375,7.44196484 C91.807125,10.9264044 87.632625,15.1917231 85.550625,18.7165143 C88.886625,16.0256571 93.168375,12.2251297 97.061625,9.3780967 C98.155125,8.57629451 102.672375,5.05897582 102.093375,9.23537143 C101.785125,11.4995473 99.773625,14.0984923 98.290125,15.8777011 C97.122375,17.2690857 96.043875,18.3735253 95.318625,19.5018769 C95.268375,19.5302725 95.218125,19.5594154 95.170125,19.587811 C95.203125,19.587811 95.233875,19.5855692 95.264625,19.5825802 C95.283375,19.5564264 95.299125,19.528778 95.318625,19.5018769 C97.585125,18.1882066 100.285125,15.9576571 103.344375,14.7530857 C104.222625,14.4071077 105.662625,13.6195033 106.421625,13.8780527 C108.337875,14.5304044 106.074375,18.5371736 105.400875,19.3188 C104.723625,20.1049099 103.676625,20.7938769 102.826875,21.5418769 C100.346625,23.7171297 97.748625,24.338844 95.355375,26.5604264 C99.190875,25.5045582 114.852375,21.0621407 115.974375,22.2442945" id="Fill-11"></path>
                    <path d="M54.102,62.2606505 L54.65025,62.2606505 C55.08225,62.2606505 55.38225,62.2300132 55.55025,62.1687385 C55.7205,62.1059692 55.8525,62.0050901 55.95075,61.8623648 C56.04675,61.7203868 56.09475,61.5485187 56.09475,61.3467604 C56.09475,60.9970462 55.9605,60.7414857 55.6875,60.5823209 C55.49025,60.4627604 55.12425,60.4029802 54.59025,60.4029802 L54.102,60.4029802 L54.102,62.2606505 Z M52.374,58.723156 L54.207,58.723156 C55.1985,58.723156 55.91175,58.8150681 56.3505,58.9973978 C56.7885,59.1797275 57.1335,59.4741451 57.387,59.8828923 C57.642,60.2916396 57.76725,60.7795956 57.76725,61.3497495 C57.76725,61.9819253 57.6015,62.507244 57.27,62.9249582 C56.9385,63.3419253 56.48775,63.6355956 55.92225,63.799244 C55.5885,63.8941451 54.9825,63.9389802 54.102,63.9389802 L54.102,67.7701451 L52.374,67.7701451 L52.374,58.723156 Z" id="Fill-13"></path>
                    <polygon id="Fill-15" points="60.721575 58.7228571 65.678325 58.7228571 65.678325 60.4086593 62.437575 60.4086593 62.437575 62.0458901 65.678325 62.0458901 65.678325 63.6980659 62.437575 63.6980659 62.437575 66.0773187 65.678325 66.0773187 65.678325 67.7698462 60.721575 67.7698462"></polygon>
                    <path d="M70.401675,62.2606505 L70.946925,62.2606505 C71.495925,62.2606505 71.875425,62.1889143 72.083925,62.046189 C72.292425,61.9004747 72.395175,61.6621011 72.395175,61.3280791 C72.395175,61.1308044 72.343425,60.9589363 72.241425,60.813222 C72.138675,60.6667604 72.000675,60.5621451 71.827425,60.4993758 C71.654925,60.4351121 71.339175,60.4029802 70.877175,60.4029802 L70.401675,60.4029802 L70.401675,62.2606505 Z M68.672175,58.723156 L70.505925,58.723156 C71.510925,58.723156 72.224925,58.8120791 72.651675,58.9899253 C73.076175,59.1692659 73.419675,59.4659253 73.678425,59.8784088 C73.937175,60.2946286 74.066925,60.7833319 74.066925,61.3497495 C74.066925,61.9453099 73.922925,62.4429802 73.639425,62.8412659 C73.352925,63.2410462 72.920925,63.5436835 72.347175,63.749178 L74.493675,67.7701451 L72.604425,67.7701451 L70.559925,63.9389802 L70.401675,63.9389802 L70.401675,67.7701451 L68.672175,67.7701451 L68.672175,58.723156 Z" id="Fill-17"></path>
                    <polygon id="Fill-19" points="77.175075 58.7228571 81.680325 58.7228571 81.680325 60.4026813 78.889575 60.4026813 78.889575 62.0458901 81.680325 62.0458901 81.680325 63.6980659 78.889575 63.6980659 78.889575 67.7698462 77.175075 67.7698462"></polygon>
                    <polygon id="Fill-21" points="84.483225 58.7228571 89.439975 58.7228571 89.439975 60.4086593 86.197725 60.4086593 86.197725 62.0458901 89.439975 62.0458901 89.439975 63.6980659 86.197725 63.6980659 86.197725 66.0773187 89.439975 66.0773187 89.439975 67.7698462 84.483225 67.7698462"></polygon>
                    <path d="M100.662375,60.3107692 L99.455625,61.4607912 C98.632125,60.593978 97.707375,60.1605714 96.679875,60.1605714 C95.812125,60.1605714 95.082375,60.454989 94.488375,61.0490549 C93.895125,61.6386374 93.597375,62.3687033 93.597375,63.2355165 C93.597375,63.840044 93.729375,64.3750769 93.991875,64.8436044 C94.255875,65.3121319 94.627125,65.6805275 95.107125,65.9472967 C95.587875,66.2140659 96.123375,66.3485714 96.712125,66.3485714 C97.211625,66.3485714 97.669875,66.2551648 98.086125,66.0668571 C98.500875,65.8815385 98.955375,65.540044 99.455625,65.0483516 L100.624125,66.2656264 C99.953625,66.917978 99.322125,67.3685714 98.724375,67.6211429 C98.127375,67.8722198 97.447125,67.9992527 96.682875,67.9992527 C95.271375,67.9992527 94.116375,67.5523956 93.217875,66.6609231 C92.318625,65.7694505 91.867875,64.6261538 91.867875,63.231033 C91.867875,62.3290989 92.071875,61.528044 92.481375,60.8256264 C92.891625,60.1254505 93.478125,59.5605275 94.241625,59.1360879 C95.003625,58.7079121 95.826375,58.4934505 96.706875,58.4934505 C97.456125,58.4934505 98.176875,58.6511209 98.867625,58.967956 C99.562125,59.2818022 100.159875,59.7301538 100.662375,60.3107692" id="Fill-23"></path>
                    <polygon id="Fill-25" points="102.537 58.7228571 107.556 58.7228571 107.556 60.4161319 105.90075 60.4161319 105.90075 67.7698462 104.15025 67.7698462 104.15025 60.4161319 102.537 60.4161319"></polygon>
                    <polygon id="Fill-27" points="115.688775 58.7228571 117.361275 58.7228571 119.468025 65.0334066 121.595025 58.7228571 123.272025 58.7228571 124.795275 67.7698462 123.121275 67.7698462 122.150775 62.0563516 120.225525 67.7698462 118.700775 67.7698462 116.795025 62.0563516 115.799775 67.7698462 114.115275 67.7698462"></polygon>
                    <path d="M131.101125,61.1207912 L129.884625,64.2248791 L132.311625,64.2248791 L131.101125,61.1207912 Z M130.218375,58.7228571 L131.974875,58.7228571 L135.454875,67.7698462 L133.661625,67.7698462 L132.950625,65.9047033 L129.245625,65.9047033 L128.506125,67.7698462 L126.712875,67.7698462 L130.218375,58.7228571 Z" id="Fill-29"></path>
                    <polygon id="Fill-31" points="137.157525 58.7228571 142.178775 58.7228571 142.178775 60.4161319 140.520525 60.4161319 140.520525 67.7698462 138.770025 67.7698462 138.770025 60.4161319 137.157525 60.4161319"></polygon>
                    <path d="M152.97195,60.3107692 L151.76595,61.4607912 C150.94395,60.593978 150.0192,60.1605714 148.9917,60.1605714 C148.1232,60.1605714 147.3927,60.454989 146.7987,61.0490549 C146.20545,61.6386374 145.9092,62.3687033 145.9092,63.2355165 C145.9092,63.840044 146.0397,64.3750769 146.3022,64.8436044 C146.56695,65.3121319 146.9382,65.6805275 147.4197,65.9472967 C147.90045,66.2140659 148.4337,66.3485714 149.02245,66.3485714 C149.52195,66.3485714 149.98245,66.2551648 150.3957,66.0668571 C150.8112,65.8815385 151.26795,65.540044 151.76595,65.0483516 L152.93595,66.2656264 C152.2662,66.917978 151.63245,67.3685714 151.0347,67.6211429 C150.43995,67.8722198 149.7597,67.9992527 148.99245,67.9992527 C147.58245,67.9992527 146.4282,67.5523956 145.52745,66.6609231 C144.63045,65.7694505 144.18045,64.6261538 144.18045,63.231033 C144.18045,62.3290989 144.38445,61.528044 144.7932,60.8256264 C145.2042,60.1254505 145.78995,59.5605275 146.55345,59.1360879 C147.3162,58.7079121 148.1382,58.4934505 149.01795,58.4934505 C149.7672,58.4934505 150.48945,58.6511209 151.1817,58.967956 C151.87395,59.2818022 152.47245,59.7301538 152.97195,60.3107692" id="Fill-33"></path>
                    <polygon id="Fill-35" points="155.744175 58.7228571 157.494675 58.7228571 157.494675 62.1378022 160.519425 62.1378022 160.519425 58.7228571 162.263925 58.7228571 162.263925 67.7698462 160.519425 67.7698462 160.519425 63.8049231 157.494675 63.8049231 157.494675 67.7698462 155.744175 67.7698462"></polygon>
                </g>
            </g>
        </g>
    </g>
</svg>