<?xml version="1.0" encoding="UTF-8"?>
<svg width="24px" height="24px" viewBox="0 0 24 24" version="1.1" xmlns="http://www.w3.org/2000/svg" xmlns:xlink="http://www.w3.org/1999/xlink">
    <!-- Generator: Sketch 41.2 (35397) - http://www.bohemiancoding.com/sketch -->
    <title>icon_24_fb_login</title>
    <desc>Created with Sketch.</desc>
    <defs></defs>
    <g id="Page-A2~A3---iOS" stroke="none" stroke-width="1" fill="none" fill-rule="evenodd">
        <g id="A2-登入頁" transform="translate(-46.000000, -487.000000)">
            <g id="Group-10" transform="translate(36.000000, 477.000000)">
                <g id="Group-2">
                    <g id="Page-1" transform="translate(10.000000, 10.000000)">
                        <path d="M22.6754242,24.0001798 C23.4068634,24.0001798 24,23.4070433 24,22.6756041 L24,1.32466569 C24,0.592956728 23.4068634,0 22.6754242,0 L1.32457577,0 C0.592866804,0 0,0.592956728 0,1.32466569 L0,22.6756041 C0,23.4070433 0.592866804,24.0001798 1.32457577,24.0001798 L22.6754242,24.0001798 Z" id="Fill-1" fill="#FFFFFF"></path>
                        <path d="M17.1398851,24 L17.1398851,14.877114 L20.3831033,14.877114 L20.8686559,11.3216997 L17.1398851,11.3216997 L17.1398851,9.05172475 C17.1398851,8.02234933 17.4425842,7.32088762 19.0059999,7.32088762 L21,7.32000494 L21,4.1400805 C20.6550464,4.09682943 19.4714536,4 18.0944437,4 C15.2195499,4 13.2514447,5.65686898 13.2514447,8.69971401 L13.2514447,11.3216997 L10,11.3216997 L10,14.877114 L13.2514447,14.877114 L13.2514447,24 L17.1398851,24 Z" id="Fill-4" fill="#3C5999"></path>
                    </g>
                </g>
            </g>
        </g>
    </g>
</svg>