<?xml version="1.0" encoding="UTF-8"?>
<svg width="24px" height="24px" viewBox="0 0 24 24" version="1.1" xmlns="http://www.w3.org/2000/svg" xmlns:xlink="http://www.w3.org/1999/xlink">
    <!-- Generator: Sketch 41.2 (35397) - http://www.bohemiancoding.com/sketch -->
    <title>icon_24_line_login</title>
    <desc>Created with Sketch.</desc>
    <defs></defs>
    <g id="Page-A2~A3---iOS" stroke="none" stroke-width="1" fill="none" fill-rule="evenodd">
        <g id="A2-登入頁" transform="translate(-46.000000, -547.000000)">
            <g id="Group-10" transform="translate(36.000000, 477.000000)">
                <g id="Group-2" transform="translate(0.000000, 60.000000)">
                    <g id="Group-5" transform="translate(10.000000, 10.000000)">
                        <rect id="Rectangle-3" x="0" y="0" width="24" height="24"></rect>
                        <g id="Group-4" transform="translate(0.000000, 1.000000)">
                            <path d="M23.4597111,9.54709706 C23.4597111,4.2837049 18.2597111,0.00164607843 11.8674889,0.00164607843 C5.47615556,0.00164607843 0.275488889,4.2837049 0.275488889,9.54709706 C0.275488889,14.2657049 4.39948889,18.2174206 9.97015556,18.9646951 C10.3477111,19.0472245 10.8614889,19.2172441 10.9914889,19.5446559 C11.1081556,19.841852 11.0679333,20.3079402 11.0288222,20.6082931 C11.0288222,20.6082931 10.8928222,21.4380971 10.8634889,21.6153324 C10.8130444,21.9125284 10.6306,22.7784108 11.8674889,22.2491853 C13.1048222,21.7201853 18.5434889,18.2607147 20.9754889,15.4199892 L20.9748222,15.4199892 C22.6550444,13.5506755 23.4597111,11.6536265 23.4597111,9.54709706" id="Fill-4" fill="#FFFFFF"></path>
                            <path d="M9.51222222,7.00361275 L8.69911111,7.00361275 C8.57444444,7.00361275 8.47333333,7.10621078 8.47333333,7.23248529 L8.47333333,12.357652 C8.47333333,12.4839265 8.57444444,12.586299 8.69911111,12.586299 L9.51222222,12.586299 C9.63688889,12.586299 9.738,12.4839265 9.738,12.357652 L9.738,7.23248529 C9.738,7.10621078 9.63688889,7.00361275 9.51222222,7.00361275" id="Fill-6" fill="#00B900"></path>
                            <path d="M15.1090222,7.00361275 L14.2959111,7.00361275 C14.1710222,7.00361275 14.0701333,7.10621078 14.0701333,7.23248529 L14.0701333,10.2772794 L11.7552444,7.10553431 C11.7501333,7.09719118 11.7439111,7.08952451 11.7379111,7.08230882 C11.7372444,7.08163235 11.7365778,7.08118137 11.7363556,7.08073039 C11.7319111,7.07576961 11.7272444,7.07103431 11.7228,7.06652451 C11.7212444,7.06517157 11.7201333,7.06404412 11.7185778,7.06269118 C11.7148,7.05930882 11.7108,7.05570098 11.7063556,7.05254412 C11.7045778,7.0507402 11.7025778,7.04938725 11.7005778,7.04780882 C11.6968,7.04510294 11.6928,7.04217157 11.6888,7.03969118 C11.6868,7.03811275 11.6845778,7.0367598 11.6821333,7.03563235 C11.6781333,7.03315196 11.6741333,7.03089706 11.6701333,7.02864216 C11.6676889,7.02751471 11.6652444,7.02638725 11.6630222,7.0252598 C11.6588,7.02323039 11.6545778,7.02142647 11.6499111,7.01962255 C11.6472444,7.01872059 11.6452444,7.01781863 11.6425778,7.01714216 C11.6381333,7.01533824 11.6339111,7.0137598 11.6292444,7.01263235 C11.6268,7.01195588 11.6241333,7.01127941 11.6214667,7.01060294 C11.6170222,7.00947549 11.6128,7.00834804 11.6083556,7.00767157 C11.6052444,7.0069951 11.6019111,7.00654412 11.5990222,7.00631863 C11.5950222,7.00541667 11.5910222,7.00519118 11.5870222,7.0047402 C11.5832444,7.00428922 11.5792444,7.00428922 11.5752444,7.00406373 C11.5725778,7.00406373 11.5701333,7.00361275 11.5674667,7.00361275 L10.7543556,7.00361275 C10.6296889,7.00361275 10.5285778,7.10621078 10.5285778,7.23248529 L10.5285778,12.357652 C10.5285778,12.4839265 10.6296889,12.586299 10.7543556,12.586299 L11.5674667,12.586299 C11.6923556,12.586299 11.7934667,12.4839265 11.7934667,12.357652 L11.7934667,9.3137598 L14.1110222,12.4897892 C14.1268,12.5125637 14.1465778,12.5312794 14.1683556,12.5461618 C14.1690222,12.5468382 14.1696889,12.5472892 14.1705778,12.5479657 C14.1752444,12.5508971 14.1796889,12.5538284 14.1845778,12.5565343 C14.1868,12.5578873 14.1885778,12.5590147 14.1908,12.5601422 C14.1943556,12.5619461 14.1979111,12.56375 14.2016889,12.5655539 C14.2054667,12.5669069 14.2088,12.5687108 14.2128,12.5700637 C14.2152444,12.5709657 14.2170222,12.5718676 14.2194667,12.5727696 C14.2248,12.5745735 14.2296889,12.576152 14.2348,12.5777304 C14.2359111,12.5779559 14.2370222,12.5781814 14.2381333,12.5784069 C14.2563556,12.5835931 14.2756889,12.586299 14.2959111,12.586299 L15.1090222,12.586299 C15.2339111,12.586299 15.3348,12.4839265 15.3348,12.357652 L15.3348,7.23248529 C15.3348,7.10621078 15.2339111,7.00361275 15.1090222,7.00361275" id="Fill-8" fill="#00B900"></path>
                            <path d="M7.55226667,11.3029216 L5.34293333,11.3029216 L5.34293333,7.23259804 C5.34293333,7.10609804 5.24182222,7.00372549 5.11715556,7.00372549 L4.30404444,7.00372549 C4.17937778,7.00372549 4.07826667,7.10609804 4.07826667,7.23259804 L4.07826667,12.3573137 L4.07826667,12.3575392 C4.07826667,12.419098 4.10248889,12.4747941 4.14137778,12.5158333 C4.14226667,12.5169608 4.14315556,12.5183137 4.14448889,12.5194412 C4.1456,12.5203431 4.14671111,12.5214706 4.14782222,12.522598 C4.18848889,12.5620588 4.24315556,12.5864118 4.3036,12.5864118 L4.30404444,12.5864118 L7.55226667,12.5864118 C7.67693333,12.5864118 7.7776,12.4835882 7.7776,12.3573137 L7.7776,11.5320196 C7.7776,11.4057451 7.67693333,11.3029216 7.55226667,11.3029216" id="Fill-10" fill="#00B900"></path>
                            <path d="M19.5992444,8.28708039 C19.7239111,8.28708039 19.8248,8.18448235 19.8248,8.05798235 L19.8248,7.23291373 C19.8248,7.10641373 19.7239111,7.0035902 19.5992444,7.0035902 L16.3510222,7.0035902 L16.3505778,7.0035902 C16.2896889,7.0035902 16.2348,7.02816863 16.1941333,7.06830588 C16.1932444,7.06920784 16.1921333,7.06988431 16.1914667,7.07056078 C16.1901333,7.07213922 16.1888,7.07349216 16.1876889,7.0748451 C16.1492444,7.11588431 16.1252444,7.1713549 16.1252444,7.23246275 L16.1252444,7.23291373 L16.1252444,12.3571784 L16.1252444,12.3576294 C16.1252444,12.4191882 16.1494667,12.4748843 16.1883556,12.515698 C16.1892444,12.5168255 16.1903556,12.5181784 16.1914667,12.5193059 C16.1923556,12.5202078 16.1936889,12.5213353 16.1948,12.5222373 C16.2350222,12.5619235 16.2899111,12.5862765 16.3505778,12.5862765 L16.3510222,12.5862765 L19.5992444,12.5862765 C19.7239111,12.5862765 19.8248,12.4836784 19.8248,12.3571784 L19.8248,11.5321098 C19.8248,11.4056098 19.7239111,11.3030118 19.5992444,11.3030118 L17.3901333,11.3030118 L17.3901333,10.4366784 L19.5992444,10.4366784 C19.7239111,10.4366784 19.8248,10.3340804 19.8248,10.2075804 L19.8248,9.38251176 C19.8248,9.25578627 19.7239111,9.15318824 19.5992444,9.15318824 L17.3901333,9.15318824 L17.3901333,8.28708039 L19.5992444,8.28708039 Z" id="Fill-12" fill="#00B900"></path>
                        </g>
                    </g>
                </g>
            </g>
        </g>
    </g>
</svg>