<?xml version="1.0" encoding="UTF-8"?>
<svg width="96px" height="96px" viewBox="0 0 96 96" version="1.1" xmlns="http://www.w3.org/2000/svg" xmlns:xlink="http://www.w3.org/1999/xlink">
    <!-- Generator: Sketch 41.2 (35397) - http://www.bohemiancoding.com/sketch -->
    <title>icon_96_system_message</title>
    <desc>Created with Sketch.</desc>
    <defs></defs>
    <g id="Page-A2~A3---iOS" stroke="none" stroke-width="1" fill="none" fill-rule="evenodd">
        <g id="A2.1-忘記密碼" transform="translate(-140.000000, -100.000000)">
            <g id="Group-5" transform="translate(140.000000, 100.000000)">
                <rect id="Rectangle-8" x="0" y="0" width="96" height="96"></rect>
                <path d="M78.2390588,39.2823462 L78.2390588,66.0043077 C78.2390588,67.4856154 77.7126275,68.7533333 76.6597647,69.8074615 C75.606902,70.8615897 74.3407059,71.3886538 72.8611765,71.3886538 L23.3816471,71.3886538 C21.9021176,71.3886538 20.6359216,70.8615897 19.5830588,69.8074615 C18.5301961,68.7533333 18.0037647,67.4856154 18.0037647,66.0043077 L18.0037647,39.2823462 C18.9901176,40.3817051 20.1220392,41.3579359 21.3995294,42.2110385 C29.5112157,47.7304487 35.0798431,51.6008205 38.1054118,53.8221538 C39.382902,54.7644615 40.419451,55.4994615 41.2150588,56.0271538 C42.0106667,56.5548462 43.0698039,57.0932179 44.3924706,57.6422692 C45.7151373,58.1913205 46.947451,58.4664744 48.0894118,58.4677308 L48.1571765,58.4677308 C49.3003922,58.4677308 50.5327059,58.1925769 51.8541176,57.6422692 C53.1755294,57.0919615 54.2346667,56.5535897 55.0315294,56.0271538 C55.8283922,55.5007179 56.8649412,54.7657179 58.1411765,53.8221538 C61.9510588,51.0630769 67.5309804,47.1927051 74.8809412,42.2110385 C76.1584314,41.3365769 77.2790588,40.3603462 78.2428235,39.2823462 L78.2390588,39.2823462 Z M78.2390588,29.3881154 C78.2390588,31.1609103 77.6900392,32.8545513 76.592,34.4690385 C75.4939608,36.0835256 74.1267451,37.4630641 72.4903529,38.6076538 C64.0649412,44.4637821 58.8213333,48.1098846 56.7595294,49.5459615 C56.534902,49.7030128 56.0586667,50.0453846 55.3308235,50.5730769 C54.6029804,51.1007692 53.9981176,51.5273205 53.5162353,51.8527308 C53.0343529,52.178141 52.451451,52.5425 51.7675294,52.9458077 C51.0836078,53.3491154 50.4392157,53.6519103 49.8343529,53.8541923 C49.2294902,54.0564744 48.6691765,54.1576154 48.1534118,54.1576154 L48.0856471,54.1576154 C47.5698824,54.1576154 47.0095686,54.0564744 46.4047059,53.8541923 C45.7998431,53.6519103 45.155451,53.3491154 44.4715294,52.9458077 C43.7876078,52.5425 43.2047059,52.178141 42.7228235,51.8527308 C42.2409412,51.5273205 41.6360784,51.1007692 40.9082353,50.5730769 C40.1803922,50.0453846 39.7041569,49.7030128 39.4795294,49.5459615 C37.4403137,48.1098846 34.5044706,46.0625641 30.672,43.404 C26.8395294,40.7454359 24.5424314,39.1466538 23.7807059,38.6076538 C22.3915294,37.6653462 21.0807843,36.369359 19.8484706,34.7196923 C18.6161569,33.0700256 18,31.5384615 18,30.125 C18,28.3748205 18.4649412,26.9167564 19.3948235,25.7508077 C20.3247059,24.584859 21.6523922,24.0012564 23.3778824,24 L72.8574118,24 C74.3143529,24 75.574902,24.5270641 76.6390588,25.5811923 C77.7032157,26.6353205 78.2352941,27.9030385 78.2352941,29.3843462 L78.2390588,29.3881154 Z" id="Shape" fill="#B0B3B2"></path>
            </g>
        </g>
    </g>
</svg>