<?xml version="1.0" encoding="UTF-8"?>
<svg width="96px" height="96px" viewBox="0 0 96 96" version="1.1" xmlns="http://www.w3.org/2000/svg" xmlns:xlink="http://www.w3.org/1999/xlink">
    <!-- Generator: Sketch 41.2 (35397) - http://www.bohemiancoding.com/sketch -->
    <title>icon_96_identity</title>
    <desc>Created with Sketch.</desc>
    <defs></defs>
    <g id="Page-A2~A3---iOS" stroke="none" stroke-width="1" fill="none" fill-rule="evenodd">
        <g id="A4-會員身份選擇" transform="translate(-140.000000, -100.000000)">
            <g id="Group-5" transform="translate(140.000000, 100.000000)">
                <rect id="Rectangle-8" x="0" y="0" width="96" height="96"></rect>
                <path d="M28.6661297,64.1601578 L28.6661297,67.3306483 L67.3306483,67.3306483 L67.3306483,64.1601578 C67.3306483,57.6645186 54.4940281,54.191156 47.998389,54.191156 C41.5027498,54.191156 28.6661297,57.6645186 28.6661297,64.1601578 Z M57.6645186,38.3322593 C57.6645186,33.0448864 53.2857619,28.6661297 47.998389,28.6661297 C42.7110161,28.6661297 38.3322593,33.0448864 38.3322593,38.3322593 C38.3322593,43.6196322 42.7110161,47.998389 47.998389,47.998389 C53.2857619,47.998389 57.6645186,43.6196322 57.6645186,38.3322593 Z M19,25.4956391 C19,22.0222765 21.8708405,19 25.4956391,19 L70.5043609,19 C73.9777235,19 77,22.0222765 77,25.4956391 L77,70.5043609 C77,73.9777235 73.9777235,77 70.5043609,77 L25.4956391,77 C21.8708405,77 19,73.9777235 19,70.5043609 L19,25.4956391 Z" id="Shape" fill="#B0B3B2"></path>
            </g>
        </g>
    </g>
</svg>