<?xml version="1.0" encoding="UTF-8"?>
<svg width="96px" height="96px" viewBox="0 0 96 96" version="1.1" xmlns="http://www.w3.org/2000/svg" xmlns:xlink="http://www.w3.org/1999/xlink">
    <!-- Generator: Sketch 41.2 (35397) - http://www.bohemiancoding.com/sketch -->
    <title>icon_96_peset_password</title>
    <desc>Created with Sketch.</desc>
    <defs></defs>
    <g id="Page-A2~A3---iOS" stroke="none" stroke-width="1" fill="none" fill-rule="evenodd">
        <g id="A2.3-重新設定密碼" transform="translate(-140.000000, -100.000000)">
            <g id="Group-5" transform="translate(140.000000, 100.000000)">
                <rect id="Rectangle-8" x="0" y="0" width="96" height="96"></rect>
                <path d="M37.1489524,45.1304615 L59.7887619,45.1304615 L59.7887619,36.6898462 C59.7887619,33.5833846 58.6835556,30.9314872 56.4731429,28.7341538 C54.2627302,26.5368205 51.5950476,25.4381538 48.4700952,25.4381538 C45.3451429,25.4381538 42.6774603,26.5368205 40.4670476,28.7341538 C38.2566349,30.9314872 37.1514286,33.5833846 37.1514286,36.6898462 L37.1514286,45.1304615 L37.1489524,45.1304615 Z M73.9377143,49.352 L73.9377143,74.6713846 C73.9377143,75.8430769 73.5250159,76.8391795 72.699619,77.6596923 C71.8742222,78.4802051 70.8721905,78.8904615 69.6935238,78.8904615 L27.2441905,78.8904615 C26.0655238,78.8904615 25.0634921,78.4802051 24.2380952,77.6596923 C23.4126984,76.8391795 23,75.8430769 23,74.6713846 L23,49.352 C23,48.1803077 23.4126984,47.1842051 24.2380952,46.3636923 C25.0634921,45.5431795 26.0655238,45.1329231 27.2441905,45.1329231 L28.6580952,45.1329231 L28.6580952,36.6923077 C28.6580952,31.2998974 30.6035556,26.6697436 34.4944762,22.8018462 C38.3853968,18.9339487 43.0431111,17 48.467619,17 C53.892127,17 58.5498413,18.9339487 62.4407619,22.8018462 C66.3316825,26.6697436 68.2771429,31.2998974 68.2771429,36.6923077 L68.2771429,45.1329231 L69.6910476,45.1329231 C70.8697143,45.1329231 71.871746,45.5431795 72.6971429,46.3636923 C73.5225397,47.1842051 73.9352381,48.1803077 73.9352381,49.352 L73.9377143,49.352 Z" id="Shape" fill="#B0B3B2"></path>
            </g>
        </g>
    </g>
</svg>