<?xml version="1.0" encoding="UTF-8"?>
<svg width="24px" height="24px" viewBox="0 0 24 24" version="1.1" xmlns="http://www.w3.org/2000/svg" xmlns:xlink="http://www.w3.org/1999/xlink">
    <!-- Generator: Sketch 41.2 (35397) - http://www.bohemiancoding.com/sketch -->
    <title>icon_24_shot</title>
    <desc>Created with Sketch.</desc>
    <defs></defs>
    <g id="Page-A2~A3---iOS" stroke="none" stroke-width="1" fill="none" fill-rule="evenodd">
        <g id="A4.1-學生會員上傳學生證" transform="translate(-203.000000, -313.000000)" fill="#DF643E">
            <g id="Group-6" transform="translate(36.000000, 303.000000)">
                <g id="Group-2" transform="translate(157.000000, 0.000000)">
                    <g id="Group-4" transform="translate(10.000000, 10.000000)">
                        <path d="M12.00035,10.4815575 C12.9920373,10.4815575 13.8399883,10.8370465 14.544203,11.5480245 C15.2484177,12.2590025 15.600525,13.1150973 15.600525,14.1163088 C15.600525,15.1175204 15.2484177,15.9736151 14.544203,16.6845931 C13.8399883,17.3955711 12.9920373,17.7510601 12.00035,17.7510601 C11.0086627,17.7510601 10.1607117,17.3955711 9.45649701,16.6845931 C8.75228234,15.9736151 8.400175,15.1175204 8.400175,14.1163088 C8.400175,13.1150973 8.75228234,12.2590025 9.45649701,11.5480245 C10.1607117,10.8370465 11.0086627,10.4815575 12.00035,10.4815575 Z M20.8002333,5.23120415 C21.6836517,5.23120415 22.4378008,5.54664468 23.0626805,6.17752575 C23.6875602,6.80840681 24,7.56979875 24,8.46170155 L24,19.7695026 C24,20.6614054 23.6875602,21.4227973 23.0626805,22.0536784 C22.4378008,22.6845595 21.6836517,23 20.8002333,23 L3.19976666,23 C2.31634826,23 1.56219921,22.6845595 0.937319527,22.0536784 C0.312439842,21.4227973 -2.07245949e-16,20.6614054 0,19.7695026 L0,8.46170155 C0,7.56979875 0.312439842,6.80840681 0.937319527,6.17752575 C1.56219921,5.54664468 2.31634826,5.23120415 3.19976666,5.23120415 L5.999825,5.23120415 L6.63753828,3.5145386 C6.79574158,3.10227502 7.08531428,2.74678603 7.50625638,2.44807162 C7.92719848,2.14935721 8.35840747,2 8.79988333,2 L15.2001167,2 C15.6415925,2 16.0728015,2.14935721 16.4937436,2.44807162 C16.9146857,2.74678603 17.2042584,3.10227502 17.3624617,3.5145386 L18.000175,5.23120415 L20.8002333,5.23120415 Z M12.00035,19.7702093 C13.5422488,19.7702093 14.8610763,19.2170694 15.9568324,18.1107895 C17.0525886,17.0045097 17.6004667,15.6730161 17.6004667,14.1163088 C17.6004667,12.5596015 17.0525886,11.228108 15.9568324,10.1218281 C14.8610763,9.01554823 13.5422488,8.46240829 12.00035,8.46240829 C10.4584512,8.46240829 9.13962374,9.01554823 8.04386758,10.1218281 C6.94811142,11.228108 6.40023334,12.5596015 6.40023334,14.1163088 C6.40023334,15.6730161 6.94811142,17.0045097 8.04386758,18.1107895 C9.13962374,19.2170694 10.4584512,19.7702093 12.00035,19.7702093 Z" id="Shape"></path>
                    </g>
                </g>
            </g>
        </g>
    </g>
</svg>