<?xml version="1.0" encoding="UTF-8"?>
<svg width="24px" height="24px" viewBox="0 0 24 24" version="1.1" xmlns="http://www.w3.org/2000/svg" xmlns:xlink="http://www.w3.org/1999/xlink">
    <!-- Generator: Sketch 41.2 (35397) - http://www.bohemiancoding.com/sketch -->
    <title>icon_24_photo</title>
    <desc>Created with Sketch.</desc>
    <defs></defs>
    <g id="Page-A2~A3---iOS" stroke="none" stroke-width="1" fill="none" fill-rule="evenodd">
        <g id="A4.1-學生認證" transform="translate(-46.000000, -313.000000)" fill="#DF643E">
            <g id="Group-6" transform="translate(36.000000, 303.000000)">
                <g id="Group-2">
                    <g id="Group-3" transform="translate(10.000000, 10.000000)">
                        <path d="M7.99976666,8.54178212 C7.99976666,9.20171601 7.76642847,9.76259054 7.29975208,10.2244057 C6.83307569,10.6862209 6.26629721,10.9171285 5.59941665,10.9171285 C4.93253609,10.9171285 4.36575762,10.6862209 3.89908123,10.2244057 C3.43240484,9.76259054 3.19906665,9.20171601 3.19906665,8.54178212 C3.19906665,7.88184823 3.43240484,7.3209737 3.89908123,6.85915852 C4.36575762,6.39734335 4.93253609,6.16643576 5.59941665,6.16643576 C6.26629721,6.16643576 6.83307569,6.39734335 7.29975208,6.85915852 C7.76642847,7.3209737 7.99976666,7.88184823 7.99976666,8.54178212 Z M20.7995333,13.2917821 L20.7995333,18.8335642 L3.19906665,18.8335642 L3.19906665,16.4582179 L7.19894998,12.5 L9.19889164,14.4791089 L15.599125,8.1455447 L20.7995333,13.2917821 Z M22.0000583,4.58287152 L1.99994167,4.58287152 C1.89167274,4.58287152 1.79787079,4.62212581 1.7185358,4.70063439 C1.63920082,4.77914297 1.59953332,4.87196782 1.59953332,4.97910894 L1.59953332,20.0208911 C1.59953332,20.1280322 1.63920082,20.220857 1.7185358,20.2993656 C1.79787079,20.3778742 1.89167274,20.4171285 1.99994167,20.4171285 L22.0000583,20.4171285 C22.1083273,20.4171285 22.2021292,20.3778742 22.2814642,20.2993656 C22.3607992,20.220857 22.4004667,20.1280322 22.4004667,20.0208911 L22.4004667,4.97910894 C22.4004667,4.87196782 22.3607992,4.77914297 22.2814642,4.70063439 C22.2021292,4.62212581 22.1083273,4.58287152 22.0000583,4.58287152 L22.0000583,4.58287152 Z M24,4.97910894 L24,20.0208911 C24,20.5653712 23.8042293,21.0313427 23.4126878,21.4188056 C23.0211463,21.8062685 22.5502698,22 22.0000583,22 L1.99994167,22 C1.4497302,22 0.978853726,21.8062685 0.587312236,21.4188056 C0.195770745,21.0313427 1.03673572e-16,20.5653712 0,20.0208911 L0,4.97910894 C0,4.43462885 0.195770745,3.96865733 0.587312236,3.5811944 C0.978853726,3.19373147 1.4497302,3 1.99994167,3 L22.0000583,3 C22.5502698,3 23.0211463,3.19373147 23.4126878,3.5811944 C23.8042293,3.96865733 24,4.43462885 24,4.97910894 L24,4.97910894 Z" id="Shape"></path>
                    </g>
                </g>
            </g>
        </g>
    </g>
</svg>